<?xml version="1.0" encoding="UTF-8" standalone="no"?>
<svg
   width="1280"
   height="1024"
   viewBox="0 0 1280 1024"
   fill="none"
   version="1.1"
   id="svg50"
   sodipodi:docname="splashloading.svg"
   inkscape:version="1.1.1 (3bf5ae0d25, 2021-09-20)"
   xmlns:inkscape="http://www.inkscape.org/namespaces/inkscape"
   xmlns:sodipodi="http://sodipodi.sourceforge.net/DTD/sodipodi-0.dtd"
   xmlns="http://www.w3.org/2000/svg"
   xmlns:svg="http://www.w3.org/2000/svg">
  <defs
     id="defs54" />
  <sodipodi:namedview
     id="namedview52"
     pagecolor="#505050"
     bordercolor="#eeeeee"
     borderopacity="1"
     inkscape:pageshadow="0"
     inkscape:pageopacity="0"
     inkscape:pagecheckerboard="0"
     showgrid="false"
     inkscape:zoom="0.67291667"
     inkscape:cx="959.25697"
     inkscape:cy="539.44272"
     inkscape:window-width="2560"
     inkscape:window-height="1371"
     inkscape:window-x="1080"
     inkscape:window-y="265"
     inkscape:window-maximized="1"
     inkscape:current-layer="svg50" />
  <rect
     width="1280"
     height="1024"
     fill="#303030"
     id="rect2"
     x="0"
     y="0"
     style="stroke-width:0.795047" />
  <g
     id="g894"
     transform="translate(-320.28,-27.866457)">
    <path
       d="m 1205.48,489.236 c 0,0.851 -0.69,1.541 -1.54,1.541 -0.85,0 -1.54,-0.69 -1.54,-1.541 0,-0.851 0.69,-1.54 1.54,-1.54 0.85,0 1.54,0.689 1.54,1.54 z"
       fill="#ffffff"
       stroke="#ffffff"
       stroke-width="2"
       id="path4" />
    <path
       d="m 1200.4,494.318 c 0,0.851 -0.69,1.541 -1.55,1.541 -0.85,0 -1.54,-0.69 -1.54,-1.541 0,-0.851 0.69,-1.541 1.54,-1.541 0.86,0 1.55,0.69 1.55,1.541 z"
       fill="#ffffff"
       stroke="#ffffff"
       stroke-width="2"
       id="path6" />
    <path
       d="m 1210.56,494.318 c 0,0.851 -0.69,1.541 -1.54,1.541 -0.85,0 -1.54,-0.69 -1.54,-1.541 0,-0.851 0.69,-1.541 1.54,-1.541 0.85,0 1.54,0.69 1.54,1.541 z"
       fill="#ffffff"
       stroke="#ffffff"
       stroke-width="2"
       id="path8" />
    <path
       d="m 1205.48,499.4 c 0,0.851 -0.69,1.541 -1.54,1.541 -0.85,0 -1.54,-0.69 -1.54,-1.541 0,-0.851 0.69,-1.541 1.54,-1.541 0.85,0 1.54,0.69 1.54,1.541 z"
       fill="#ffffff"
       stroke="#ffffff"
       stroke-width="2"
       id="path10" />
    <path
       fill-rule="evenodd"
       clip-rule="evenodd"
       d="m 712.787,470.775 c -0.134,-0.637 -0.083,-4.904 -0.028,-5.65 0.861,-0.123 1.614,-0.1 2.373,-0.078 0.171,0.005 0.343,0.011 0.517,0.014 0.342,0.007 0.755,-0.006 1.202,-0.02 1.484,-0.046 3.338,-0.103 4.18,0.51 1.53,1.114 1.71,3.312 0.233,4.576 -0.804,0.688 -1.747,0.705 -2.811,0.68 -1.009,-0.023 -1.989,-0.021 -2.969,-0.019 v 0 h -0.001 c -0.892,0.003 -1.783,0.005 -2.696,-0.013 z m 0.025,-8.929 c -0.022,-0.084 -0.124,-5.015 -0.018,-5.644 0.003,-0.017 0.007,-0.037 0.011,-0.054 0.002,-0.011 0.004,-0.021 0.006,-0.03 l 0.045,-0.165 c 0.467,-0.064 3.678,-0.079 4.055,0.028 2.948,0.84 2.829,4.951 0.185,5.687 -0.955,0.266 -2.22,0.229 -3.306,0.197 -0.35,-0.01 -0.682,-0.02 -0.978,-0.019 z m -2.638,12.041 -0.092,-0.009 c -0.099,-0.562 -0.216,-1.164 -0.352,-1.806 -0.239,-1.449 -0.215,-2.688 -0.189,-4.01 0.007,-0.326 0.013,-0.657 0.016,-0.997 l -0.01,-9.865 c -0.008,-1.896 -0.011,-2.904 1.361,-3.923 0.992,-0.736 2.494,-0.652 3.802,-0.58 0.31,0.018 0.61,0.034 0.889,0.039 1.991,0.036 2.816,0.228 4.113,1.109 1.13,0.769 2.088,2.015 2.438,3.794 0.352,1.783 0.094,2.398 -0.234,3.177 -0.149,0.356 -0.313,0.746 -0.44,1.298 0.112,0.118 0.339,0.243 0.627,0.401 0.499,0.276 1.18,0.651 1.75,1.263 2.489,2.673 2.002,6.403 -0.323,8.636 -1.763,1.694 -3.784,1.63 -6.117,1.555 h -0.005 c -0.114,-0.004 -0.228,-0.007 -0.342,-0.011 -0.896,-0.027 -1.797,-0.008 -2.7,0.01 -1.395,0.028 -2.796,0.057 -4.192,-0.081 z"
       fill="#ffffff"
       id="path12" />
    <path
       fill-rule="evenodd"
       clip-rule="evenodd"
       d="m 766.847,455.756 c 2.302,-1.011 4.718,-0.615 6.441,0.211 1.898,0.911 2.824,2.019 3.981,4.214 1.04,1.974 0.473,5.051 -0.24,6.469 -2.037,4.047 -6.733,5.674 -10.773,3.693 -3.856,-1.892 -5.643,-6.899 -3.585,-10.712 0.954,-1.768 1.953,-2.899 4.176,-3.875 z m -0.296,-3.27 c -0.708,0.384 -1.957,0.448 -3.942,2.098 -1.097,0.913 -1.83,1.887 -2.543,3.042 -3.019,4.89 -1.291,12.229 4.272,15.329 9.05,5.041 19.251,-3.798 16.215,-13.173 -1.349,-4.165 -5.144,-7.219 -9.077,-7.683 -1.1,-0.13 -3.777,-0.235 -4.925,0.387 z"
       fill="#ffffff"
       id="path14" />
    <path
       fill-rule="evenodd"
       clip-rule="evenodd"
       d="m 835.475,463.486 c -0.376,-1.172 0.735,-4.213 1.226,-5.047 2.169,-3.681 5.731,-4.307 8.288,-0.778 1.199,1.655 1.627,3.483 1.754,5.783 -0.561,0.168 -9.36,0.006 -11.268,0.042 z m -0.163,10.342 c 0.197,-0.502 0.103,-5.987 0.1,-7.022 0.338,-0.088 10.892,-0.096 11.223,0.003 0.192,0.637 0.107,2.721 0.11,3.531 0.003,0.794 -0.118,2.934 0.068,3.551 3.776,-0.401 3.062,-3.541 3.202,-5.244 0.09,-1.105 -0.006,-2.539 0,-3.721 0.008,-1.472 0.104,-2.263 -0.199,-3.916 -0.859,-4.696 -4.1,-9.14 -8.971,-8.9 -5.157,0.255 -7.969,5.122 -8.52,9.094 -0.182,1.31 -0.213,5.834 -0.178,7.306 0.025,1.047 -0.195,2.77 0.411,3.732 0.546,0.866 1.631,1.778 2.754,1.586 z"
       fill="#ffffff"
       id="path16" />
    <path
       fill-rule="evenodd"
       clip-rule="evenodd"
       d="m 730.539,463.397 c -0.426,-2.451 1.535,-7.75 5.358,-8.107 4.3,-0.401 6.251,6.448 5.836,8.019 -0.699,0.244 -6.904,0.091 -8.468,0.123 -0.928,0.019 -1.894,-0.104 -2.726,-0.035 z m -0.138,10.349 c 0.098,-1.98 0.061,-5.043 -10e-4,-6.986 0.312,-0.143 10.841,-0.162 11.287,-0.04 0.199,0.692 0.058,2.674 0.065,3.495 0.008,0.889 -0.088,2.862 0.076,3.613 3.137,-0.352 3.377,-2.678 3.205,-5.286 l 0.02,-3.699 c 0.021,-3.984 -0.39,-7.199 -3.313,-10.318 -1.459,-1.557 -3.219,-2.473 -5.814,-2.504 -2.843,-0.034 -4.847,1.786 -6.08,3.242 -1.209,1.428 -2.156,3.684 -2.473,5.86 -0.326,2.231 -0.169,4.934 -0.193,7.271 -0.012,1.148 -0.183,2.687 0.413,3.786 0.524,0.965 1.663,1.681 2.808,1.566 z"
       fill="#ffffff"
       id="path18" />
    <path
       fill-rule="evenodd"
       clip-rule="evenodd"
       d="m 820.955,455.652 c 2.239,-1.103 4.558,0.303 5.329,2 1.078,2.374 -0.265,4.553 -2.05,5.319 -4.841,2.078 -8.163,-4.912 -3.279,-7.319 z m -2.366,10.773 c 0.469,0.116 0.819,0.615 1.328,1.131 1.052,1.065 5.424,5.551 6.106,5.946 1.254,0.728 2.537,0.371 3.706,-0.416 -0.27,-0.928 -5.69,-5.477 -6.155,-6.588 5.874,-1.162 7.599,-6.882 5.268,-10.858 -3.121,-5.325 -11.284,-4.551 -13.215,1.72 -0.479,1.554 -0.245,9.234 -0.257,11.132 l -0.004,4.677 c -0.004,0.411 -0.115,0.622 0.238,0.683 0.433,0.074 1.5,-0.41 1.781,-0.653 1.796,-1.555 0.928,-3.747 1.204,-6.774 z"
       fill="#ffffff"
       id="path20" />
    <path
       fill-rule="evenodd"
       clip-rule="evenodd"
       d="m 813.815,473.844 c -0.46,-4.082 -4.034,-2.921 -6.54,-3.134 -0.564,-0.048 -2.609,0.159 -2.878,-0.062 l -0.086,-0.137 c -0.007,-0.018 -0.028,-0.052 -0.035,-0.075 -0.106,-0.331 0.011,-2.319 -0.015,-2.98 -0.041,-1.037 -0.01,-2.261 0.009,-3.291 1.251,-0.304 5.607,0.207 6.394,-0.193 -0.11,-1.608 -1.11,-2.579 -2.182,-2.928 -1.156,-0.376 -3.478,-0.013 -4.152,-0.211 -0.092,-0.441 -0.152,-4.557 0.03,-4.968 l 5.811,-0.03 c 1.147,0.047 1.936,-0.191 2.671,-0.853 0.531,-0.479 1.104,-1.414 0.923,-2.351 l -4.086,-0.046 c -0.543,0.003 -1.029,0.071 -1.556,0.059 -4.505,-0.103 -7.24,-0.76 -7.063,4.875 0.071,2.238 -0.166,12.907 0.116,14.073 0.709,2.931 4.423,2.358 6.917,2.317 0.991,-0.016 1.862,0.056 2.846,0.004 0.869,-0.045 2.074,0.134 2.876,-0.069 z"
       fill="#ffffff"
       id="path22" />
    <path
       fill-rule="evenodd"
       clip-rule="evenodd"
       d="m 800.009,452.69 -5.746,-0.041 c -2.211,-10e-4 -4.035,0.377 -5.946,1.377 -8.902,4.658 -7.086,17.261 2.808,19.565 1.872,0.436 3.654,0.247 5.642,0.324 0.437,0.017 0.927,0 1.393,-0.005 1.584,-0.019 2.258,0.453 1.642,-1.17 -1.015,-2.674 -4.029,-1.922 -5.886,-2.033 -3.719,-0.222 -6.71,-1.752 -7.885,-5.531 -1.156,-3.721 1.085,-7.157 4.445,-8.605 3.95,-1.702 6.345,0.375 8.558,-1.583 0.567,-0.501 1.075,-1.343 0.975,-2.298 z"
       fill="#ffffff"
       id="path24" />
    <path
       fill-rule="evenodd"
       clip-rule="evenodd"
       d="m 750.561,455.778 c 0.265,1.076 -0.164,16.68 0.146,18.059 3.8,-0.534 3.034,-3.486 3.11,-5.483 0.069,-1.793 -0.12,-12.196 0.064,-12.444 0.172,-0.232 0.786,-0.132 0.971,-0.127 0.758,0.023 2.701,0.021 3.295,-0.211 1.342,-0.524 2.084,-1.653 2.043,-2.961 -0.369,-0.124 -13.27,-0.128 -15.194,-0.1 -0.83,0.012 -0.899,0.057 -0.634,0.957 0.856,2.914 4.153,2.209 6.199,2.31 z"
       fill="#ffffff"
       id="path26" />
    <path
       fill-rule="evenodd"
       clip-rule="evenodd"
       d="m 985.552,485 c -21.736,0 -40.395,14.694 -45.495,36.095 0.072,-0.896 0.109,-1.815 0.109,-2.756 0,-9.165 -2.388,-17.299 -8.149,-23.128 -5.772,-5.841 -14.227,-8.658 -24.857,-8.658 H 774.684 v 87.833 l -21.499,-28.665 c 10.653,-3.238 19.99,-12.453 19.99,-27.382 0,-9.165 -2.388,-17.299 -8.149,-23.128 -5.772,-5.841 -14.228,-8.658 -24.858,-8.658 H 709.38 v 91.081 h 20.979 v -28.769 l 20.465,28.769 h 77.117 v -19.981 h -32.277 v -15.957 h 32.277 v -19.981 h -32.277 v -15.181 h 45.41 v 71.1 h 20.979 v -71.1 h 14.318 v 71.1 h 20.98 v -28.769 l 20.465,28.769 h 26.295 l -23.935,-31.913 c 8.445,-2.567 16.062,-8.889 18.857,-18.835 -0.232,1.987 -0.352,4.02 -0.352,6.095 0,24.677 21.322,46.206 46.539,46.206 26.59,0 47.87,-20.241 47.87,-47.648 0,-25.366 -20.68,-46.539 -47.538,-46.539 z m -250.93,43.924 h -4.263 v -22.39 h 8.145 c 4.533,0 7.993,1.251 10.229,3.092 2.15,1.771 3.462,4.309 3.462,7.715 0,4.024 -1.442,6.612 -3.908,8.371 -2.703,1.928 -7.151,3.212 -13.665,3.212 z m 166.991,0 h -4.262 v -22.39 h 8.145 c 4.532,0 7.992,1.251 10.228,3.092 2.151,1.771 3.463,4.309 3.463,7.715 0,4.024 -1.442,6.612 -3.909,8.371 -2.703,1.928 -7.15,3.212 -13.665,3.212 z m 58.047,2.837 c 0,-5.13 1.957,-11.945 6.332,-17.401 4.255,-5.307 10.818,-9.379 20.448,-9.379 14.48,0 25.67,12.496 25.67,27.334 0,13.05 -9.83,26.891 -26.225,26.891 -15.833,0 -26.225,-12.954 -26.225,-27.445 z"
       fill="#ffffff"
       id="path28" />
    <path
       d="m 1085.41,486.553 h -50.48 v 91.081 h 20.98 v -35.495 h 29.5 v -19.981 h -29.5 v -15.624 h 29.5 z"
       fill="#ffffff"
       id="path30" />
    <path
       fill-rule="evenodd"
       clip-rule="evenodd"
       d="m 1131.07,486.553 h -42.08 v 91.081 h 41.74 l 18.18,-27.576 18,27.576 h 24.88 l -30.13,-45.635 30.42,-45.446 h -25.05 l -18.08,27.363 z m 5.04,45.436 -26.14,39.574 v -78.935 z"
       fill="#ffffff"
       id="path32" />
    <path
       d="m 709,622.139 3.995,3.449 c 0.968,-0.631 1.893,-0.925 2.481,-1.136 9.925,-3.238 18.631,-8.242 24.392,-15.139 l -2.985,-4.753 c -5.384,6.561 -14.762,11.944 -21.617,13.921 v -21.869 c 0,-1.64 0.168,-3.154 0.421,-4.794 h -6.603 c 0.252,1.219 0.463,3.196 0.463,4.794 v 22.794 c 0,0.967 -0.042,1.682 -0.547,2.733 z"
       fill="#ffffff"
       id="path34" />
    <path
       d="m 753.116,619.784 c 0,1.683 -0.168,4.206 -0.421,5.888 h 6.561 c -0.168,-1.724 -0.379,-4.668 -0.379,-5.888 v -11.901 c 4.542,1.556 10.851,3.995 15.182,6.266 l 2.397,-5.804 c -3.869,-1.892 -11.943,-4.878 -17.579,-6.518 v -6.224 c 0,-1.725 0.211,-3.575 0.379,-5.047 h -6.561 c 0.295,1.472 0.421,3.575 0.421,5.047 z"
       fill="#ffffff"
       id="path36" />
    <path
       d="m 784.321,594.005 c 0.084,1.177 0.084,2.901 0.084,4.079 v 20.565 c 0,2.019 -0.126,5.677 -0.126,5.888 h 5.803 c 0,-0.127 0,-1.094 -0.042,-2.271 h 20.271 c 0,1.219 -0.042,2.186 -0.042,2.271 h 5.803 c 0,-0.169 -0.084,-4.206 -0.084,-5.846 v -20.607 c 0,-1.262 0,-2.818 0.084,-4.079 -1.514,0.084 -3.112,0.084 -4.163,0.084 h -23.13 c -1.136,0 -2.734,-0.042 -4.458,-0.084 z m 5.719,5.425 h 20.313 v 17.453 H 790.04 Z"
       fill="#ffffff"
       id="path38" />
    <path
       d="m 855.52,595.813 -4.121,-2.65 c -1.136,0.295 -2.482,0.337 -3.323,0.337 h -19.429 c -1.388,0 -3.785,-0.21 -5.047,-0.337 v 5.93 c 1.094,-0.084 3.112,-0.168 5.005,-0.168 h 19.597 c -0.546,3.575 -2.144,8.369 -4.92,11.86 -3.406,4.247 -8.159,7.906 -16.486,9.883 l 4.584,5.004 c 7.486,-2.397 13.08,-6.561 16.907,-11.607 3.49,-4.668 5.341,-11.187 6.308,-15.308 0.21,-0.883 0.547,-2.103 0.925,-2.944 z"
       fill="#ffffff"
       id="path40" />
    <path
       d="m 860.923,611.836 2.481,4.962 c 3.659,-1.135 8.369,-3.07 12.07,-4.92 v 11.103 c 0,1.471 -0.126,3.7 -0.21,4.541 h 6.224 c -0.253,-0.841 -0.295,-3.07 -0.295,-4.541 v -14.425 c 3.743,-2.482 7.444,-5.468 9.421,-7.654 l -4.164,-4.08 c -2.145,2.734 -6.392,6.519 -10.471,9 -3.323,2.019 -9.589,4.836 -15.056,6.014 z"
       fill="#ffffff"
       id="path42" />
    <path
       d="m 916.772,598.841 -5.005,1.64 c 1.052,2.187 2.902,7.276 3.407,9.336 l 5.047,-1.766 c -0.589,-1.935 -2.65,-7.402 -3.449,-9.21 z m 15.518,3.07 -5.887,-1.893 c -0.505,5.257 -2.524,10.851 -5.383,14.425 -3.491,4.374 -9.337,7.57 -13.963,8.79 l 4.416,4.5 c 4.921,-1.851 10.177,-5.383 14.089,-10.43 2.859,-3.701 4.626,-8.074 5.719,-12.322 0.252,-0.841 0.505,-1.724 1.009,-3.07 z m -25.275,-0.841 -5.046,1.808 c 1.009,1.851 3.112,7.444 3.827,9.715 l 5.13,-1.935 c -0.841,-2.355 -2.859,-7.443 -3.911,-9.588 z"
       fill="#ffffff"
       id="path44" />
    <path
       d="M 958.743,591.019 952.603,589 c -0.378,1.43 -1.262,3.364 -1.892,4.416 -2.103,3.617 -5.762,9.042 -13.122,13.542 l 4.71,3.49 c 4.122,-2.818 7.781,-6.518 10.598,-10.177 h 11.818 c -0.673,3.154 -3.112,8.201 -5.972,11.481 -3.659,4.163 -8.327,7.822 -16.948,10.387 l 4.962,4.458 c 7.907,-3.112 12.995,-6.981 16.991,-11.859 3.785,-4.71 6.182,-10.304 7.317,-14.047 0.337,-1.051 0.925,-2.229 1.388,-3.028 l -4.29,-2.649 c -0.967,0.294 -2.355,0.505 -3.658,0.505 h -8.453 c 0.042,-0.085 0.084,-0.127 0.126,-0.211 0.504,-0.925 1.598,-2.817 2.565,-4.289 z"
       fill="#ffffff"
       id="path46" />
    <path
       d="m 1007.56,595.308 -3.45,-2.565 c -0.84,0.294 -2.52,0.547 -4.333,0.547 h -14.845 c -1.262,0 -3.827,-0.127 -4.963,-0.295 v 5.972 c 0.884,-0.042 3.197,-0.294 4.963,-0.294 h 14.257 c -0.926,2.986 -3.491,7.149 -6.267,10.303 -3.953,4.416 -10.471,9.547 -17.242,12.07 l 4.331,4.542 c 5.762,-2.734 11.355,-7.107 15.813,-11.818 3.953,3.827 7.866,8.117 10.596,11.902 l 4.8,-4.163 c -2.48,-3.028 -7.57,-8.411 -11.737,-12.028 2.817,-3.785 5.177,-8.285 6.607,-11.565 0.37,-0.841 1.13,-2.145 1.47,-2.608 z"
       fill="#ffffff"
       id="path48" />
  </g>
</svg>
